<?xml version="1.0" encoding="UTF-8"?>
<svg version="1.1" xmlns="http://www.w3.org/2000/svg" width="577" height="433">
<path d="M0 0 C0 2.64 0 5.28 0 8 C-0.99 8.495 -0.99 8.495 -2 9 C-2.05395478 10.62463842 -2.09277195 12.24978541 -2.125 13.875 C-2.14820313 14.77992188 -2.17140625 15.68484375 -2.1953125 16.6171875 C-2.24324836 19.18806994 -2.24324836 19.18806994 0 21 C0.26991906 23.68839385 0.08737357 26.29141936 0 29 C-18.02538725 30.20169248 -18.02538725 30.20169248 -22.625 26.4375 C-26.11179612 21.7533151 -25.97516586 16.18445596 -25.640625 10.55859375 C-24.86981838 6.27685696 -24.14620913 3.80741436 -20.75390625 1.03125 C-14.24184421 -1.4073094 -6.82303386 -0.45486892 0 0 Z " fill="#A4A5A3" transform="translate(435,202)"/>
<path d="M0 0 C0 0.66 0 1.32 0 2 C0.61875 2.28875 1.2375 2.5775 1.875 2.875 C4 4 4 4 6 6 C6.27940142 8.84107133 6.41624531 11.53159505 6.4375 14.375 C6.47037109 15.14328125 6.50324219 15.9115625 6.53710938 16.703125 C6.55815832 18.91517779 6.50446723 20.84470149 6 23 C3.53515625 25.4140625 3.53515625 25.4140625 1 27 C0.67 27.66 0.34 28.32 0 29 C-2.60444348 29.05394705 -5.20776998 29.09364469 -7.8125 29.125 C-8.55048828 29.14175781 -9.28847656 29.15851563 -10.04882812 29.17578125 C-13.91246426 29.21074628 -15.70903668 29.19397555 -19 27 C-19 26.34 -19 25.68 -19 25 C-19.639375 24.690625 -20.27875 24.38125 -20.9375 24.0625 C-23 23 -23 23 -24 22 C-24.70623111 16.16085209 -25.37947368 9.87794348 -22.77734375 4.44921875 C-16.72574939 -1.97478142 -8.09035424 -0.61855864 0 0 Z M-14 9 C-14.07226502 10.85287502 -14.0838122 12.70833878 -14.0625 14.5625 C-14.041875 16.356875 -14.02125 18.15125 -14 20 C-10.37 20 -6.74 20 -3 20 C-3 16.04 -3 12.08 -3 8 C-8.77650049 7.37599062 -8.77650049 7.37599062 -14 9 Z " fill="#C6C6C6" transform="translate(254,202)"/>
<path d="M0 0 C3.63 0 7.26 0 11 0 C11.34933594 0.85464844 11.69867188 1.70929688 12.05859375 2.58984375 C12.51363281 3.69457031 12.96867187 4.79929688 13.4375 5.9375 C14.11619141 7.59072266 14.11619141 7.59072266 14.80859375 9.27734375 C15.74424608 11.86568916 15.74424608 11.86568916 17 13 C17.27714844 12.14535156 17.55429687 11.29070312 17.83984375 10.41015625 C18.20207031 9.30542969 18.56429688 8.20070312 18.9375 7.0625 C19.29714844 5.96035156 19.65679687 4.85820312 20.02734375 3.72265625 C21 1 21 1 22 0 C23.68608966 -0.07205511 25.37500659 -0.08386068 27.0625 -0.0625 C27.98160156 -0.05347656 28.90070313 -0.04445312 29.84765625 -0.03515625 C30.55792969 -0.02355469 31.26820313 -0.01195312 32 0 C30.6959992 6.73733749 28.66181883 12.69014889 26 19 C25.2464661 20.87358258 24.49634806 22.74854335 23.75 24.625 C23.16666667 26.08333333 22.58333333 27.54166667 22 29 C20.56465159 29.2226746 19.12654475 29.42761906 17.6875 29.625 C16.48673828 29.79902344 16.48673828 29.79902344 15.26171875 29.9765625 C13 30 13 30 10 28 C8.90099168 25.35358797 7.94982662 22.77844285 7.0625 20.0625 C6.54079516 18.52329149 6.0186588 16.98422918 5.49609375 15.4453125 C5.24327637 14.69024414 4.99045898 13.93517578 4.72998047 13.15722656 C3.74068855 10.23368697 2.68791186 7.33497503 1.625 4.4375 C1.08875 2.973125 0.5525 1.50875 0 0 Z " fill="#D9D9D9" transform="translate(377,202)"/>
<path d="M0 0 C3.63 0 7.26 0 11 0 C11.27714844 0.85464844 11.55429688 1.70929688 11.83984375 2.58984375 C12.20207031 3.69457031 12.56429687 4.79929688 12.9375 5.9375 C13.29714844 7.03964844 13.65679687 8.14179688 14.02734375 9.27734375 C14.73856668 11.88123475 14.73856668 11.88123475 16 13 C16.34933594 12.14535156 16.69867188 11.29070312 17.05859375 10.41015625 C17.51363281 9.30542969 17.96867187 8.20070312 18.4375 7.0625 C18.88996094 5.96035156 19.34242188 4.85820312 19.80859375 3.72265625 C21 1 21 1 22 0 C23.68608966 -0.07205511 25.37500659 -0.08386068 27.0625 -0.0625 C27.98160156 -0.05347656 28.90070313 -0.04445312 29.84765625 -0.03515625 C30.55792969 -0.02355469 31.26820313 -0.01195312 32 0 C29.96153664 7.11917887 27.59634938 14.06609867 25 21 C24.69578125 21.81597656 24.3915625 22.63195312 24.078125 23.47265625 C23.38876812 25.31636074 22.69494539 27.15839471 22 29 C12.42394015 30.43640898 12.42394015 30.43640898 10 29 C7.7486355 24.67738016 6.32616304 20.11004375 4.828125 15.48046875 C3.57054279 11.71365411 2.16551026 8.00253856 0.76953125 4.28515625 C0 2 0 2 0 0 Z " fill="#ABABAB" transform="translate(198,202)"/>
<path d="M0 0 C3.63 0 7.26 0 11 0 C13.64165002 5.68970774 16.01091624 11.45500373 18.25 17.3125 C18.52021973 18.00601563 18.79043945 18.69953125 19.06884766 19.4140625 C20.36980358 22.86096823 21 25.2645448 21 29 C17.7 29 14.4 29 11 29 C8.525 22.565 8.525 22.565 6 16 C4.13341783 18.79987325 3.29790681 20.97208741 2.25 24.125 C1.203125 26.80859375 1.203125 26.80859375 0 29 C-3.63470517 30.43873746 -6.33160003 30.26983076 -10 29 C-9.36597456 23.58907057 -7.58072598 18.94812621 -5.5625 13.9375 C-5.09360352 12.75317383 -5.09360352 12.75317383 -4.61523438 11.54492188 C-3.74931113 9.36089136 -2.87596523 7.18001869 -2 5 C-1.34 3.35 -0.68 1.7 0 0 Z " fill="#DCDCDC" transform="translate(288,202)"/>
<path d="M0 0 C1.51400391 0.01740234 1.51400391 0.01740234 3.05859375 0.03515625 C4.07050781 0.04417969 5.08242187 0.05320313 6.125 0.0625 C7.29869141 0.07990234 7.29869141 0.07990234 8.49609375 0.09765625 C18.49609375 24.49765625 18.49609375 24.49765625 18.49609375 29.09765625 C15.19609375 29.09765625 11.89609375 29.09765625 8.49609375 29.09765625 C7.03125 25.77734375 7.03125 25.77734375 5.56640625 22.45703125 C4.59395174 20.3133724 3.54879893 18.20306662 2.49609375 16.09765625 C0.84609375 20.38765625 -0.80390625 24.67765625 -2.50390625 29.09765625 C-6.5243161 29.79349642 -9.58654044 30.26766595 -13.50390625 29.09765625 C-11.73874819 22.40686664 -9.3808154 15.97809764 -6.87890625 9.53515625 C-6.5655835 8.7251416 -6.25226074 7.91512695 -5.92944336 7.08056641 C-3.20047004 0.12482332 -3.20047004 0.12482332 0 0 Z " fill="#D7D7D7" transform="translate(182.50390625,201.90234375)"/>
<path d="M0 0 C0.95068359 0.01869141 1.90136719 0.03738281 2.88085938 0.05664062 C7.23943673 0.23025272 9.99863689 0.39918213 13.79296875 2.67578125 C16.88632152 6.16457293 16.9148962 9.32963051 16.83984375 13.8828125 C16.64629516 16.33442792 16.15519661 17.83110958 14.6875 19.8125 C12.5625 21.5625 12.5625 21.5625 10.6875 22.8125 C13.1625 26.2775 13.1625 26.2775 15.6875 29.8125 C11.01507405 30.98060649 7.33180938 31.14887321 2.6875 29.8125 C0.06924866 28.00395619 -0.67653038 26.702713 -2.3125 23.8125 C-2.1875 20.6875 -2.1875 20.6875 -1.3125 17.8125 C-1.126875 17.02875 -0.94125 16.245 -0.75 15.4375 C-0.605625 14.90125 -0.46125 14.365 -0.3125 13.8125 C2.3275 13.8125 4.9675 13.8125 7.6875 13.8125 C7.25233494 11.72638341 7.25233494 11.72638341 5.6875 9.8125 C3.02267159 9.34540648 0.73679034 9.11677527 -1.9375 9.0625 C-2.64390625 9.03285156 -3.3503125 9.00320312 -4.078125 8.97265625 C-5.82230047 8.90194643 -7.56740827 8.85495965 -9.3125 8.8125 C-9.43625 8.008125 -9.56 7.20375 -9.6875 6.375 C-9.996875 5.1065625 -9.996875 5.1065625 -10.3125 3.8125 C-10.9725 3.4825 -11.6325 3.1525 -12.3125 2.8125 C-12.3125 2.1525 -12.3125 1.4925 -12.3125 0.8125 C-8.57798726 -1.05475637 -4.09282337 -0.16173917 0 0 Z " fill="#E8E8E8" transform="translate(151.3125,201.1875)"/>
<path d="M0 0 C0 2.64 0 5.28 0 8 C-4.95 8 -9.9 8 -15 8 C-15 12.29 -15 16.58 -15 21 C-10.05 21 -5.1 21 0 21 C0 23.64 0 26.28 0 29 C-5.94 29 -11.88 29 -18 29 C-18 28.34 -18 27.68 -18 27 C-18.598125 26.731875 -19.19625 26.46375 -19.8125 26.1875 C-22.16569367 24.91005201 -23.39694742 24.14782253 -25 22 C-25.94067326 16.1923651 -26.1199316 10.03781445 -24.0625 4.45703125 C-18.64716156 -2.68003164 -7.9450105 -0.52966737 0 0 Z " fill="#828282" transform="translate(335,202)"/>
<path d="M0 0 C8.58 0 17.16 0 26 0 C26 2.64 26 5.28 26 8 C23.03 8 20.06 8 17 8 C17 14.93 17 21.86 17 29 C13.7 29 10.4 29 7 29 C7 22.07 7 15.14 7 8 C4.69 8 2.38 8 0 8 C0 5.36 0 2.72 0 0 Z " fill="#F4F4F4" transform="translate(337,202)"/>
<path d="M0 0 C3.3 0 6.6 0 10 0 C10 9.57 10 19.14 10 29 C6.7 29 3.4 29 0 29 C0 19.43 0 9.86 0 0 Z " fill="#878787" transform="translate(365,202)"/>
<path d="M0 0 C10.62228146 -0.55689631 10.62228146 -0.55689631 15 3 C18.0039329 6.0039329 17.40743185 9.35255031 17.4375 13.375 C17.47037109 14.14328125 17.50324219 14.9115625 17.53710938 15.703125 C17.5761616 19.80715874 17.57444854 21.39198602 14.66015625 24.4765625 C12 26 12 26 9 27 C9 25.02 9 23.04 9 21 C7.35 21 5.7 21 4 21 C4 22.98 4 24.96 4 27 C2.02 27 0.04 27 -2 27 C-2 25.02 -2 23.04 -2 21 C-2.66 20.67 -3.32 20.34 -4 20 C0.29 20 4.58 20 9 20 C9 15.71 9 11.42 9 7 C6.03 6.67 3.06 6.34 0 6 C0 4.02 0 2.04 0 0 Z " fill="#CECECE" transform="translate(243,203)"/>
<path d="M0 0 C0.66 0.33 1.32 0.66 2 1 C2 3.31 2 5.62 2 8 C3.05960938 7.97679687 4.11921875 7.95359375 5.2109375 7.9296875 C6.5989513 7.91093056 7.9869727 7.89273028 9.375 7.875 C10.42300781 7.84986328 10.42300781 7.84986328 11.4921875 7.82421875 C13.32897486 7.80655733 15.16601963 7.89696739 17 8 C17.66 8.66 18.32 9.32 19 10 C18.625 13.625 18.625 13.625 18 17 C18.66 17.33 19.32 17.66 20 18 C19.67 18.99 19.34 19.98 19 21 C19.99 21.33 20.98 21.66 22 22 C22 22.66 22 23.32 22 24 C23.29572383 26.02456848 24.6273318 28.02678947 26 30 C21.52062959 31.31029202 17.49512945 31.29344755 13 30 C10.38174866 28.19145619 9.63596962 26.890213 8 24 C8.125 20.875 8.125 20.875 9 18 C9.185625 17.21625 9.37125 16.4325 9.5625 15.625 C9.706875 15.08875 9.85125 14.5525 10 14 C12.64 14 15.28 14 18 14 C17.56483494 11.91388341 17.56483494 11.91388341 16 10 C13.33517159 9.53290648 11.04929034 9.30427527 8.375 9.25 C7.66859375 9.22035156 6.9621875 9.19070312 6.234375 9.16015625 C4.49019953 9.08944643 2.74509173 9.04245965 1 9 C0.87625 8.195625 0.7525 7.39125 0.625 6.5625 C0.315625 5.2940625 0.315625 5.2940625 0 4 C-0.66 3.67 -1.32 3.34 -2 3 C-2 2.34 -2 1.68 -2 1 C-1.34 0.67 -0.68 0.34 0 0 Z " fill="#DCDCDC" transform="translate(141,201)"/>
<path d="M0 0 C2.29109597 -0.08075665 4.58299267 -0.13907731 6.875 -0.1875 C8.78925781 -0.23970703 8.78925781 -0.23970703 10.7421875 -0.29296875 C12.35480469 -0.14794922 12.35480469 -0.14794922 14 0 C16.67927341 4.01891012 16.15601248 6.24161923 16 11 C-0.25650224 12.0735426 -0.25650224 12.0735426 -4.53125 9.44140625 C-6.125 7.5 -6.125 7.5 -8 4 C-6.865625 3.71125 -5.73125 3.4225 -4.5625 3.125 C-3.386875 2.75375 -2.21125 2.3825 -1 2 C-0.67 1.34 -0.34 0.68 0 0 Z " fill="#9B9C9C" transform="translate(419,220)"/>
<path d="M0 0 C1.37478516 0.01740234 1.37478516 0.01740234 2.77734375 0.03515625 C3.69644531 0.04417969 4.61554688 0.05320313 5.5625 0.0625 C6.27277344 0.07410156 6.98304688 0.08570313 7.71484375 0.09765625 C5.84333412 7.24895321 3.21698033 13.59171082 -0.28515625 20.09765625 C-1.93515625 20.09765625 -3.58515625 20.09765625 -5.28515625 20.09765625 C-5.28515625 19.10765625 -5.28515625 18.11765625 -5.28515625 17.09765625 C-5.94515625 16.76765625 -6.60515625 16.43765625 -7.28515625 16.09765625 C-5.63339449 0.24074335 -5.63339449 0.24074335 0 0 Z " fill="#DCDCDC" transform="translate(222.28515625,201.90234375)"/>
<path d="M0 0 C0 7.26 0 14.52 0 22 C-2.97 21.67 -5.94 21.34 -9 21 C-9.91181011 7.72809726 -9.91181011 7.72809726 -7.76953125 3.66796875 C-5.23629427 1.09720233 -3.64561529 0 0 0 Z " fill="#E7E7E7" transform="translate(319,203)"/>
<path d="M0 0 C0 6.27 0 12.54 0 19 C-1.65 19.33 -3.3 19.66 -5 20 C-5.33 20.66 -5.66 21.32 -6 22 C-6.99 21.67 -7.98 21.34 -9 21 C-9.91181011 7.72809726 -9.91181011 7.72809726 -7.76953125 3.66796875 C-5.23629427 1.09720233 -3.64561529 0 0 0 Z " fill="#DCDCDC" transform="translate(419,203)"/>
<path d="M0 0 C8.58 0 17.16 0 26 0 C26 2.64 26 5.28 26 8 C19.85121672 8.68319814 16.86993637 8.39114425 11.9375 4.5 C10.60708923 3.35379995 9.28802597 2.19363163 8 1 C7.67 2.32 7.34 3.64 7 5 C6.67 3.68 6.34 2.36 6 1 C4.35 1 2.7 1 1 1 C1 2.98 1 4.96 1 7 C3.31 7 5.62 7 8 7 C8 14.26 8 21.52 8 29 C7.67 29 7.34 29 7 29 C7 22.07 7 15.14 7 8 C4.69 8 2.38 8 0 8 C0 5.36 0 2.72 0 0 Z " fill="#727B79" transform="translate(337,202)"/>
<path d="M0 0 C3.63 0 7.26 0 11 0 C14.28907923 8.0856531 14.28907923 8.0856531 14 13 C14.33 13.66 14.66 14.32 15 15 C12.36 15.33 9.72 15.66 7 16 C7 14.02 7 12.04 7 10 C6.37609375 9.92910156 5.7521875 9.85820312 5.109375 9.78515625 C3 9 3 9 1.953125 6.93359375 C1.30208333 4.62239583 0.65104167 2.31119792 0 0 Z " fill="#DCDCDC" transform="translate(377,202)"/>
<path d="M0 0 C0.0825 0.5775 0.165 1.155 0.25 1.75 C0.8462011 4.13581823 0.8462011 4.13581823 2.875 5.75 C5.94473236 9.00030485 8 13.45269064 8 18 C4.7 18 1.4 18 -2 18 C-5.75903614 10.01204819 -5.75903614 10.01204819 -5 6 C-3.0625 3.8125 -3.0625 3.8125 -1 2 C-0.67 1.34 -0.34 0.68 0 0 Z " fill="#D4D4D4" transform="translate(193,213)"/>
<path d="M0 0 C5.94 0 11.88 0 18 0 C18 2.64 18 5.28 18 8 C12.72 8 7.44 8 2 8 C2 5.69 2 3.38 2 1 C1.34 0.67 0.68 0.34 0 0 Z " fill="#9E9E9E" transform="translate(317,202)"/>
<path d="M0 0 C0.99 0.33 1.98 0.66 3 1 C3 2.98 3 4.96 3 7 C5.64 6.67 8.28 6.34 11 6 C10.34 5.67 9.68 5.34 9 5 C9.66 3.68 10.32 2.36 11 1 C13.44108572 6.45654456 13.0715674 11.25250215 12 17 C11.67 17.33 11.34 17.66 11 18 C13.31 18.33 15.62 18.66 18 19 C14.53001271 21.31332486 13.07490752 21.33957563 9 21 C5.84873818 18.89915879 5.5396181 18.50420992 4.39453125 15.15625 C4.13349609 14.40472656 3.87246094 13.65320313 3.60351562 12.87890625 C3.34248047 12.09386719 3.08144531 11.30882812 2.8125 10.5 C2.53986328 9.71496094 2.26722656 8.92992187 1.98632812 8.12109375 C0 2.31643562 0 2.31643562 0 0 Z " fill="#A3A3A3" transform="translate(381,211)"/>
<path d="M0 0 C3.63 0 7.26 0 11 0 C12.03028044 2.45475514 13.04945504 4.91314351 14.0625 7.375 C14.35705078 8.07367188 14.65160156 8.77234375 14.95507812 9.4921875 C15.69591098 11.30504908 16.35396964 13.15123143 17 15 C16.67 15.66 16.34 16.32 16 17 C15.01 17 14.02 17 13 17 C13 15.68 13 14.36 13 13 C10.66475218 15.25740623 8.81294927 17.2805761 7 20 C5.59583294 17.37888816 4.3830153 14.96836854 4 12 C4.66 11.01 5.32 10.02 6 9 C6.66158043 6.95415921 6.66158043 6.95415921 7.125 4.8125 C7.41375 3.554375 7.7025 2.29625 8 1 C5.36 1 2.72 1 0 1 C0 0.67 0 0.34 0 0 Z " fill="#AAAAAA" transform="translate(180,202)"/>
<path d="M0 0 C3 3.75 3 3.75 3 6 C4.9600281 7.63676257 4.9600281 7.63676257 7 9 C6.125 14.75 6.125 14.75 5 17 C1.35526801 17.89093449 -1.42742531 18.23666047 -5 17 C-4.35083537 10.99522721 -2.14204997 5.599219 0 0 Z " fill="#AFAFAF" transform="translate(283,214)"/>
<path d="M0 0 C0.99 1.32 1.98 2.64 3 4 C6.93075644 3.42547254 6.93075644 3.42547254 10 1 C9.71517632 2.41805831 9.42181856 3.83440379 9.125 5.25 C8.96257812 6.03890625 8.80015625 6.8278125 8.6328125 7.640625 C7.99243866 10.02819165 7.34914837 11.92545337 6 14 C1.9559351 14.97357118 -1.0367776 15.14357298 -5 14 C-4.54636829 12.41531323 -4.08688548 10.83230076 -3.625 9.25 C-3.36976563 8.36828125 -3.11453125 7.4865625 -2.8515625 6.578125 C-2.0790066 4.23919428 -1.16374324 2.16557438 0 0 Z " fill="#9D9D9D" transform="translate(174,217)"/>
<path d="M0 0 C1.04976964 3.14930893 1.10131595 5.38814456 1.0625 8.6875 C1.05347656 9.68136719 1.04445313 10.67523438 1.03515625 11.69921875 C1.02355469 12.45847656 1.01195312 13.21773437 1 14 C-1.97 14 -4.94 14 -8 14 C-8.08114106 12.22992286 -8.13925505 10.45877902 -8.1875 8.6875 C-8.22230469 7.70136719 -8.25710938 6.71523437 -8.29296875 5.69921875 C-8 3 -8 3 -6.65625 1.15625 C-4.39016195 -0.425736 -2.6974415 -0.21871147 0 0 Z " fill="#DDDDDD" transform="translate(374,217)"/>
<path d="M0 0 C4.62 0 9.24 0 14 0 C14 2.64 14 5.28 14 8 C9.38 8 4.76 8 0 8 C0 5.36 0 2.72 0 0 Z " fill="#B4B4B3" transform="translate(419,212)"/>
<path d="M0 0 C3.63 0 7.26 0 11 0 C15.08034506 8.40798376 15.08034506 8.40798376 14.703125 11.1875 C13.82674137 13.44662225 12.94863859 14.55656401 11 16 C7.88742431 16 5.89234315 15.82638376 3 15 C3 14.34 3 13.68 3 13 C3.66 13 4.32 13 5 13 C5.103125 12.319375 5.20625 11.63875 5.3125 10.9375 C6.14725019 7.37084011 7.49472754 4.33777806 9 1 C6.03 1 3.06 1 0 1 C0 0.67 0 0.34 0 0 Z " fill="#B7B7B7" transform="translate(288,202)"/>
<path d="M0 0 C0.33 0.99 0.66 1.98 1 3 C1.66 3 2.32 3 3 3 C2.625 4.9375 2.625 4.9375 2 7 C1.01 7.495 1.01 7.495 0 8 C0.33 8.66 0.66 9.32 1 10 C1.99 9.01 2.98 8.02 4 7 C5.5625 8.125 5.5625 8.125 7 10 C6.75921963 13.85248595 6.15973378 15.76039934 4 19 C2.0546875 19.29296875 2.0546875 19.29296875 -0.125 19.1875 C-1.40375 19.125625 -2.6825 19.06375 -4 19 C-3.505 17.515 -3.505 17.515 -3 16 C-2.82740252 14.58634448 -2.68405393 13.16895611 -2.5625 11.75 C-2.14397725 7.62552578 -1.25891523 3.94460106 0 0 Z " fill="#C3C3C3" transform="translate(395,211)"/>
<path d="M0 0 C3.63 0 7.26 0 11 0 C11.33 2.97 11.66 5.94 12 9 C11.34 9 10.68 9 10 9 C9.67 9.99 9.34 10.98 9 12 C8.01 12 7.02 12 6 12 C6.33 10.68 6.66 9.36 7 8 C6.01 8.33 5.02 8.66 4 9 C4 8.34 4 7.68 4 7 C3.34 7 2.68 7 2 7 C1.34 4.69 0.68 2.38 0 0 Z " fill="#F0F0F0" transform="translate(198,202)"/>
<path d="M0 0 C3.96 0 7.92 0 12 0 C12 2.31 12 4.62 12 7 C8.04 7 4.08 7 0 7 C0 4.69 0 2.38 0 0 Z " fill="#B9B9B9" transform="translate(322,224)"/>
<path d="M0 0 C0.66 0.33 1.32 0.66 2 1 C2 3.31 2 5.62 2 8 C3.05960938 7.97679687 4.11921875 7.95359375 5.2109375 7.9296875 C6.5989513 7.91093056 7.9869727 7.89273028 9.375 7.875 C10.42300781 7.84986328 10.42300781 7.84986328 11.4921875 7.82421875 C13.32897486 7.80655733 15.16601963 7.89696739 17 8 C17.66 8.66 18.32 9.32 19 10 C18.625 13.625 18.625 13.625 18 17 C18.66 17.33 19.32 17.66 20 18 C19.67 18.99 19.34 19.98 19 21 C19.99 21.33 20.98 21.66 22 22 C21.67 22.66 21.34 23.32 21 24 C17.95106884 22.87076624 16.35458426 21.3656342 14.375 18.875 C13.59125 17.92625 12.8075 16.9775 12 16 C11.34 16 10.68 16 10 16 C10 15.34 10 14.68 10 14 C12.64 14 15.28 14 18 14 C17.56483494 11.91388341 17.56483494 11.91388341 16 10 C13.33517159 9.53290648 11.04929034 9.30427527 8.375 9.25 C7.66859375 9.22035156 6.9621875 9.19070312 6.234375 9.16015625 C4.49019953 9.08944643 2.74509173 9.04245965 1 9 C0.87625 8.195625 0.7525 7.39125 0.625 6.5625 C0.315625 5.2940625 0.315625 5.2940625 0 4 C-0.66 3.67 -1.32 3.34 -2 3 C-2 2.34 -2 1.68 -2 1 C-1.34 0.67 -0.68 0.34 0 0 Z " fill="#A3A3A3" transform="translate(141,201)"/>
<path d="M0 0 C0.33 0 0.66 0 1 0 C1.33 2.64 1.66 5.28 2 8 C3.32 7.01 4.64 6.02 6 5 C6.66 5.33 7.32 5.66 8 6 C8.33 5.34 8.66 4.68 9 4 C9 7.96 9 11.92 9 16 C6.03 15.67 3.06 15.34 0 15 C0 10.05 0 5.1 0 0 Z " fill="#CFCFCF" transform="translate(310,209)"/>
<path d="M0 0 C5.28 0 10.56 0 16 0 C15.67 0.66 15.34 1.32 15 2 C11.7 1.67 8.4 1.34 5 1 C5 2.98 5 4.96 5 7 C5.99 7.33 6.98 7.66 8 8 C6.35 8.33 4.7 8.66 3 9 C2.67 12.63 2.34 16.26 2 20 C5.63 20 9.26 20 13 20 C13 16.04 13 12.08 13 8 C13.33 8 13.66 8 14 8 C14 12.29 14 16.58 14 21 C9.71 21 5.42 21 1 21 C0.85714286 7.14285714 0.85714286 7.14285714 2 1 C1.34 0.67 0.68 0.34 0 0 Z " fill="#818181" transform="translate(238,202)"/>
<path d="M0 0 C0.33 0.99 0.66 1.98 1 3 C0.01 4.485 0.01 4.485 -1 6 C-1.70812814 8.32108669 -2.38024152 10.65377147 -3 13 C-12.57605985 14.43640898 -12.57605985 14.43640898 -15 13 C-16.8125 9.625 -16.8125 9.625 -18 6 C-17.67 5.01 -17.34 4.02 -17 3 C-15.02 3 -13.04 3 -11 3 C-11.33 5.97 -11.66 8.94 -12 12 C-9.36 12 -6.72 12 -4 12 C-4.12375 10.14375 -4.12375 10.14375 -4.25 8.25 C-4.2737948 4.89493302 -4.19641677 4.24552096 -2 1.5 C-1.34 1.005 -0.68 0.51 0 0 Z " fill="#757575" transform="translate(223,218)"/>
<path d="M0 0 C1.32 0 2.64 0 4 0 C4 4.62 4 9.24 4 14 C1.69 13.67 -0.62 13.34 -3 13 C-3.1875 10.625 -3.1875 10.625 -3 8 C-2.01 7.34 -1.02 6.68 0 6 C-0.66 4.68 -1.32 3.36 -2 2 C-1.34 1.34 -0.68 0.68 0 0 Z " fill="#EBECEB" transform="translate(415,207)"/>
<path d="M0 0 C1.65 0.33 3.3 0.66 5 1 C4.67 1.99 4.34 2.98 4 4 C4.99 4.33 5.98 4.66 7 5 C6.67 7.31 6.34 9.62 6 12 C3.36 12 0.72 12 -2 12 C-2 8 -2 8 0 6 C0.16681109 2.91652174 0.16681109 2.91652174 0 0 Z " fill="#CDCDCD" transform="translate(213,218)"/>
<path d="M0 0 C0 2.31 0 4.62 0 7 C-3.3 7 -6.6 7 -10 7 C-9.67 4.69 -9.34 2.38 -9 0 C-5.67465243 -1.10844919 -3.37817425 -0.84454356 0 0 Z " fill="#CECFCF" transform="translate(434,223)"/>
<path d="M0 0 C1.32 0.66 2.64 1.32 4 2 C4 2.99 4 3.98 4 5 C3.01 5.33 2.02 5.66 1 6 C-0.01754868 7.8653245 -0.01754868 7.8653245 -0.6875 10.0625 C-0.93886719 10.79597656 -1.19023437 11.52945313 -1.44921875 12.28515625 C-1.63097656 12.85105469 -1.81273437 13.41695312 -2 14 C-5.74525799 10.25474201 -5.68909949 6.01729091 -6 1 C-4.68 1.99 -3.36 2.98 -2 4 C-1.34 2.68 -0.68 1.36 0 0 Z " fill="#C1C1C1" transform="translate(301,214)"/>
<path d="M0 0 C2.97 0 5.94 0 9 0 C9 2.31 9 4.62 9 7 C5.7 6.67 2.4 6.34 -1 6 C-0.67 4.02 -0.34 2.04 0 0 Z " fill="#E8E8E8" transform="translate(325,203)"/>
<path d="M0 0 C1.58294782 -0.05437607 3.16644256 -0.09296271 4.75 -0.125 C5.63171875 -0.14820313 6.5134375 -0.17140625 7.421875 -0.1953125 C10.1135858 0.00860498 11.69904974 0.63448279 14 2 C12 3 12 3 9.9375 3.4375 C9.298125 3.623125 8.65875 3.80875 8 4 C7.67 4.66 7.34 5.32 7 6 C7.66 6.33 8.32 6.66 9 7 C6.03 6.67 3.06 6.34 0 6 C0 4.02 0 2.04 0 0 Z " fill="#C3C3C3" transform="translate(243,203)"/>
<path d="M0 0 C3.96 0 7.92 0 12 0 C12 1.98 12 3.96 12 6 C6.71502591 6.52849741 6.71502591 6.52849741 4 6 C1.5 3 1.5 3 0 0 Z " fill="#F4F4F4" transform="translate(350,203)"/>
<path d="M0 0 C1.87729813 3.1679406 2.09587672 5.35668477 2 9 C2.33 9.66 2.66 10.32 3 11 C0.36 11.33 -2.28 11.66 -5 12 C-5.33 9.69 -5.66 7.38 -6 5 C-4.68 5 -3.36 5 -2 5 C-1.34 3.35 -0.68 1.7 0 0 Z " fill="#CDCDCD" transform="translate(389,206)"/>
<path d="M0 0 C2.64 0 5.28 0 8 0 C8 2.31 8 4.62 8 7 C5.36 7 2.72 7 0 7 C0 4.69 0 2.38 0 0 Z " fill="#F6F6F6" transform="translate(366,203)"/>
<path d="M0 0 C1.65 0 3.3 0 5 0 C5.144375 0.78375 5.28875 1.5675 5.4375 2.375 C5.87798925 4.96421018 5.87798925 4.96421018 7 7 C1.72 7 -3.56 7 -9 7 C-9.33 6.34 -9.66 5.68 -10 5 C-6.7 5.33 -3.4 5.66 0 6 C0 4.02 0 2.04 0 0 Z " fill="#9F9F9F" transform="translate(247,224)"/>
<path d="M0 0 C0.185625 0.9590625 0.185625 0.9590625 0.375 1.9375 C0.684375 2.9584375 0.684375 2.9584375 1 4 C1.66 4.33 2.32 4.66 3 5 C3 5.66 3 6.32 3 7 C5.31 5.68 7.62 4.36 10 3 C9.34 4.98 8.68 6.96 8 9 C4.33694766 9.74926071 1.57644848 10.2380014 -2 9 C-1.51421457 5.87709365 -1.0013988 3.00419641 0 0 Z " fill="#757575" transform="translate(280,222)"/>
<path d="M0 0 C3.96 0 7.92 0 12 0 C10.68 0.33 9.36 0.66 8 1 C8 2.98 8 4.96 8 7 C6.02 7 4.04 7 2 7 C2 5.02 2 3.04 2 1 C1.34 0.67 0.68 0.34 0 0 Z " fill="#C5C5C5" transform="translate(239,223)"/>
<path d="M0 0 C1.98 0.66 3.96 1.32 6 2 C5.67 3.98 5.34 5.96 5 8 C2.69 8 0.38 8 -2 8 C-1.125 1.125 -1.125 1.125 0 0 Z " fill="#A6A6A6" transform="translate(173,222)"/>
<path d="M0 0 C2.64 0 5.28 0 8 0 C7.6875 2.875 7.6875 2.875 7 6 C6.01 6.66 5.02 7.32 4 8 C3.01 7.34 2.02 6.68 1 6 C1 5.34 1 4.68 1 4 C0.34 3.67 -0.32 3.34 -1 3 C-0.34 3 0.32 3 1 3 C0.67 2.01 0.34 1.02 0 0 Z " fill="#FAFAFA" transform="translate(180,203)"/>
<path d="M0 0 C0.78375 0.04125 1.5675 0.0825 2.375 0.125 C3.42476964 3.27430893 3.47631595 5.51314456 3.4375 8.8125 C3.42847656 9.80636719 3.41945313 10.80023438 3.41015625 11.82421875 C3.39855469 12.58347656 3.38695312 13.34273437 3.375 14.125 C0.405 14.125 -2.565 14.125 -5.625 14.125 C-5.625 13.795 -5.625 13.465 -5.625 13.125 C-2.985 13.125 -0.345 13.125 2.375 13.125 C2.375 10.155 2.375 7.185 2.375 4.125 C0.065 4.455 -2.245 4.785 -4.625 5.125 C-4.625 1.22254579 -3.95783286 0.18846823 0 0 Z " fill="#C2C2C2" transform="translate(371.625,216.875)"/>
<path d="M0 0 C1.134375 0.020625 2.26875 0.04125 3.4375 0.0625 C3.4375 2.0425 3.4375 4.0225 3.4375 6.0625 C0.7975 6.0625 -1.8425 6.0625 -4.5625 6.0625 C-4.605221 4.39638095 -4.60313832 2.72867115 -4.5625 1.0625 C-3.5625 0.0625 -3.5625 0.0625 0 0 Z " fill="#EBEBEB" transform="translate(430.5625,202.9375)"/>
<path d="M0 0 C2 2 2 2 2.375 4.9375 C2 8 2 8 0.1875 9.875 C-2 11 -2 11 -5 11 C-5 10.34 -5 9.68 -5 9 C-5.66 9 -6.32 9 -7 9 C-7.33 7.02 -7.66 5.04 -8 3 C-6.68 3.33 -5.36 3.66 -4 4 C-4 5.32 -4 6.64 -4 8 C-1.91666921 6.25065102 -1.91666921 6.25065102 0 4 C0 2.68 0 1.36 0 0 Z " fill="#C4C4C4" transform="translate(209,206)"/>
<path d="M0 0 C1.27617187 0.02320313 2.55234375 0.04640625 3.8671875 0.0703125 C5.78917969 0.09738281 5.78917969 0.09738281 7.75 0.125 C9.23113281 0.15980469 9.23113281 0.15980469 10.7421875 0.1953125 C10.7421875 2.8353125 10.7421875 5.4753125 10.7421875 8.1953125 C6.66921874 8.69404337 3.17443647 9.08268414 -0.4140625 6.859375 C-2.11943034 5.37067274 -3.72056288 3.85613524 -5.2578125 2.1953125 C-3.2578125 0.1953125 -3.2578125 0.1953125 0 0 Z M-2.2578125 1.1953125 C-0.82461564 4.34800539 -0.82461564 4.34800539 1.7421875 7.1953125 C4.58882645 7.74942924 6.81196069 7.48833518 9.7421875 7.1953125 C9.7421875 5.2153125 9.7421875 3.2353125 9.7421875 1.1953125 C5.7821875 1.1953125 1.8221875 1.1953125 -2.2578125 1.1953125 Z " fill="#ACACAC" transform="translate(352.2578125,201.8046875)"/>
<path d="M0 0 C2.00720923 0.28674418 4.0085944 0.61866701 6 1 C7.125 6.75 7.125 6.75 6 9 C3.625 8.375 3.625 8.375 1 7 C-0.3125 3.875 -0.3125 3.875 -1 1 C-0.67 0.67 -0.34 0.34 0 0 Z " fill="#CBCBCB" transform="translate(285,214)"/>
<path d="M0 0 C1.65 0 3.3 0 5 0 C5.33 0.99 5.66 1.98 6 3 C6.33 2.01 6.66 1.02 7 0 C7.66 0.33 8.32 0.66 9 1 C8.67 2.65 8.34 4.3 8 6 C5.36 6 2.72 6 0 6 C0 4.02 0 2.04 0 0 Z " fill="#DDDEDE" transform="translate(338,203)"/>
<path d="M0 0 C3.63 0 7.26 0 11 0 C11.99 2.97 12.98 5.94 14 9 C13.01 8.34 12.02 7.68 11 7 C10.01 7.33 9.02 7.66 8 8 C8.33 5.69 8.66 3.38 9 1 C6.03 1 3.06 1 0 1 C0 0.67 0 0.34 0 0 Z M10 8 C10.99 8.495 10.99 8.495 12 9 C11.01 9.495 11.01 9.495 10 10 C10 9.34 10 8.68 10 8 Z " fill="#9E9E9E" transform="translate(288,202)"/>
<path d="M0 0 C0.33 0 0.66 0 1 0 C1.1953125 6.0546875 1.1953125 6.0546875 1 8 C-1 10 -1 10 -4.0390625 10.1953125 C-5.22242188 10.17210937 -6.40578125 10.14890625 -7.625 10.125 C-8.81351562 10.10695312 -10.00203125 10.08890625 -11.2265625 10.0703125 C-12.14179688 10.04710937 -13.05703125 10.02390625 -14 10 C-13 8 -13 8 -11.234375 7.37890625 C-8.85849677 6.97600382 -6.65820483 6.90208522 -4.25 6.9375 C-3.45078125 6.94652344 -2.6515625 6.95554688 -1.828125 6.96484375 C-1.22484375 6.97644531 -0.6215625 6.98804688 0 7 C0 4.69 0 2.38 0 0 Z " fill="#757574" transform="translate(434,202)"/>
<path d="M0 0 C0.66 0.33 1.32 0.66 2 1 C2 1.66 2 2.32 2 3 C2.66 2.34 3.32 1.68 4 1 C4.33 1.99 4.66 2.98 5 4 C4.67 4.33 4.34 4.66 4 5 C6.31 5.33 8.62 5.66 11 6 C7.53001271 8.31332486 6.07490752 8.33957563 2 8 C-1 6 -1 6 -1.6875 3.375 C-1.790625 2.59125 -1.89375 1.8075 -2 1 C-1.34 0.67 -0.68 0.34 0 0 Z " fill="#777777" transform="translate(388,224)"/>
<path d="M0 0 C1.32 0 2.64 0 4 0 C4 2.31 4 4.62 4 7 C1.69 7 -0.62 7 -3 7 C-1.125 1.125 -1.125 1.125 0 0 Z " fill="#DBDCDB" transform="translate(428,213)"/>
<path d="M0 0 C0.33 1.32 0.66 2.64 1 4 C1.99 3.67 2.98 3.34 4 3 C4 3.99 4 4.98 4 6 C4.66 6.66 5.32 7.32 6 8 C5.67 8.99 5.34 9.98 5 11 C2.03 10.505 2.03 10.505 -1 10 C-1.125 2.25 -1.125 2.25 0 0 Z " fill="#C5C5C5" transform="translate(176,211)"/>
<path d="M0 0 C0.33 0.66 0.66 1.32 1 2 C-0.37707107 5.14759102 -1.56159764 7.56159764 -4 10 C-4.46290221 12.66242821 -4.46290221 12.66242821 -4.625 15.625 C-4.69976562 16.62789062 -4.77453125 17.63078125 -4.8515625 18.6640625 C-4.90054688 19.43492187 -4.94953125 20.20578125 -5 21 C-5.33 21 -5.66 21 -6 21 C-6.92017937 7.60627803 -6.92017937 7.60627803 -4.6640625 3.66796875 C-3 2.0625 -3 2.0625 0 0 Z " fill="#7C7C7C" transform="translate(236,203)"/>
<path d="M0 0 C0.33 0.66 0.66 1.32 1 2 C1.66 1.67 2.32 1.34 3 1 C2.34 2.65 1.68 4.3 1 6 C-1.64 6 -4.28 6 -7 6 C-6.6875 4.125 -6.6875 4.125 -6 2 C-3 0 -3 0 0 0 Z " fill="#AFB0AF" transform="translate(398,224)"/>
<path d="M0 0 C0.33 0.66 0.66 1.32 1 2 C0.22265625 4.1640625 0.22265625 4.1640625 -0.9375 6.625 C-1.31777344 7.44226563 -1.69804687 8.25953125 -2.08984375 9.1015625 C-2.54037109 10.04128906 -2.54037109 10.04128906 -3 11 C-4.32 10.34 -5.64 9.68 -7 9 C-6.67 7.35 -6.34 5.7 -6 4 C-5.34 4 -4.68 4 -4 4 C-4 3.01 -4 2.02 -4 1 C-2.68 0.67 -1.36 0.34 0 0 Z " fill="#E6E7E6" transform="translate(186,209)"/>
<path d="M0 0 C6.75 -0.125 6.75 -0.125 9 1 C9 2.98 9 4.96 9 7 C6.5625 6.1875 6.5625 6.1875 4 5 C3.67 4.01 3.34 3.02 3 2 C2.01 1.34 1.02 0.68 0 0 Z " fill="#E5E6E5" transform="translate(232,223)"/>
<path d="M0 0 C1 3 1 3 0.5 5.125 C-1 7 -1 7 -4.375 7.8125 C-7.33233428 7.96546557 -9.26324567 7.98523156 -12 7 C-11.34 5.68 -10.68 4.36 -10 3 C-9.67 3.66 -9.34 4.32 -9 5 C-5.97065509 5.65772428 -5.97065509 5.65772428 -3 6 C-2.87625 5.38125 -2.7525 4.7625 -2.625 4.125 C-2 2 -2 2 0 0 Z " fill="#636363" transform="translate(181,224)"/>
<path d="M0 0 C1.98 0 3.96 0 6 0 C6 1.98 6 3.96 6 6 C4.35 5.67 2.7 5.34 1 5 C0.67 3.35 0.34 1.7 0 0 Z " fill="#E8E8E8" transform="translate(328,224)"/>
<path d="M0 0 C1.32 0 2.64 0 4 0 C4 2.31 4 4.62 4 7 C2.35 7 0.7 7 -1 7 C-0.67 4.69 -0.34 2.38 0 0 Z " fill="#E7E8E8" transform="translate(430,223)"/>
<path d="M0 0 C0 1.65 0 3.3 0 5 C-3.91402949 3.73058503 -5.79072873 2.48832306 -8 -1 C-4.37673261 -2.2077558 -3.35853631 -1.54311128 0 0 Z " fill="#9F9F9F" transform="translate(319,225)"/>
<path d="M0 0 C4.62 0 9.24 0 14 0 C14.33 0.99 14.66 1.98 15 3 C13.06257659 3.02703381 11.12504521 3.04641125 9.1875 3.0625 C8.10855469 3.07410156 7.02960938 3.08570313 5.91796875 3.09765625 C3 3 3 3 0 2 C0 1.34 0 0.68 0 0 Z " fill="#676867" transform="translate(419,220)"/>
<path d="M0 0 C0.66 0.33 1.32 0.66 2 1 C2.625 4.0625 2.625 4.0625 3 7 C2.401875 6.79375 1.80375 6.5875 1.1875 6.375 C-1.28450846 5.69328085 -1.28450846 5.69328085 -4 8 C-4 6 -4 4 -4 2 C-2.125 0.9375 -2.125 0.9375 0 0 Z " fill="#E6E6E6" transform="translate(399,214)"/>
<path d="M0 0 C1.98 0.495 1.98 0.495 4 1 C4 2.65 4 4.3 4 6 C5.65 6 7.3 6 9 6 C9 6.33 9 6.66 9 7 C5.7 6.67 2.4 6.34 -1 6 C-0.67 4.02 -0.34 2.04 0 0 Z " fill="#C9C9C9" transform="translate(325,203)"/>
<path d="M0 0 C1.65 0.33 3.3 0.66 5 1 C5.33 2.32 5.66 3.64 6 5 C0.25 5.125 0.25 5.125 -2 4 C-1.34 2.68 -0.68 1.36 0 0 Z " fill="#EBEBEB" transform="translate(252,205)"/>
<path d="M0 0 C2.31 0 4.62 0 7 0 C7 1.65 7 3.3 7 5 C4.625 5.125 4.625 5.125 2 5 C1.34 4.34 0.68 3.68 0 3 C0 2.01 0 1.02 0 0 Z " fill="#8B8B8B" transform="translate(205,221)"/>
<path d="M0 0 C0.66 0 1.32 0 2 0 C2 0.66 2 1.32 2 2 C3.65 2 5.3 2 7 2 C7 2.99 7 3.98 7 5 C4.36 5 1.72 5 -1 5 C-0.67 3.35 -0.34 1.7 0 0 Z " fill="#F0F0F0" transform="translate(367,225)"/>
<path d="M0 0 C0 0.33 0 0.66 0 1 C-2.31 1.33 -4.62 1.66 -7 2 C-7.33 3.65 -7.66 5.3 -8 7 C-8.66 7 -9.32 7 -10 7 C-12 4 -12 4 -12 1 C-8.0186217 -0.3271261 -4.14954773 -0.06915913 0 0 Z " fill="#BEBEBE" transform="translate(434,202)"/>
<path d="M0 0 C1.98 0 3.96 0 6 0 C6 2.31 6 4.62 6 7 C3.95880212 5.38405168 1.95927063 3.7143618 0 2 C0 1.34 0 0.68 0 0 Z " fill="#E6E6E6" transform="translate(368,203)"/>
<path d="M0 0 C-0.33 1.65 -0.66 3.3 -1 5 C-3.31 5.33 -5.62 5.66 -8 6 C-3.375 0 -3.375 0 0 0 Z " fill="#CBCBCB" transform="translate(419,203)"/>
<path d="M0 0 C0.66 0 1.32 0 2 0 C2 1.98 2 3.96 2 6 C0.02 6.99 0.02 6.99 -2 8 C-3 5 -3 5 -1.6875 2.3125 C-1.130625 1.549375 -0.57375 0.78625 0 0 Z " fill="#E8E8E8" transform="translate(237,203)"/>
<path d="M0 0 C2.31 0 4.62 0 7 0 C6.01 2.31 5.02 4.62 4 7 C3.34 7 2.68 7 2 7 C2 5.02 2 3.04 2 1 C1.34 0.67 0.68 0.34 0 0 Z " fill="#D5D5D5" transform="translate(239,223)"/>
<path d="M0 0 C0.99 0 1.98 0 3 0 C3 1.98 3 3.96 3 6 C1.68 6 0.36 6 -1 6 C-1.042721 4.33388095 -1.04063832 2.66617115 -1 1 C-0.67 0.67 -0.34 0.34 0 0 Z " fill="#D6D6D6" transform="translate(427,203)"/>
<path d="M0 0 C3.5 0.3125 3.5 0.3125 7 1 C7.33 1.66 7.66 2.32 8 3 C7.21625 2.938125 6.4325 2.87625 5.625 2.8125 C4.325625 2.9053125 4.325625 2.9053125 3 3 C2.01 4.485 2.01 4.485 1 6 C0.34 6 -0.32 6 -1 6 C-1.042721 4.33388095 -1.04063832 2.66617115 -1 1 C-0.67 0.67 -0.34 0.34 0 0 Z " fill="#D2D2D2" transform="translate(249,203)"/>
<path d="M0 0 C1.98 0.495 1.98 0.495 4 1 C3.67 2.65 3.34 4.3 3 6 C1.68 5.67 0.36 5.34 -1 5 C-0.67 3.35 -0.34 1.7 0 0 Z " fill="#A6A7A6" transform="translate(419,224)"/>
<path d="M0 0 C0.33 0.66 0.66 1.32 1 2 C2.98 1.67 4.96 1.34 7 1 C6.67 2.98 6.34 4.96 6 7 C4 6 4 6 3 5 C2.01 4.34 1.02 3.68 0 3 C0 2.01 0 1.02 0 0 Z " fill="#8D8E8D" transform="translate(385,221)"/>
<path d="M0 0 C3.63 0 7.26 0 11 0 C10.67 1.32 10.34 2.64 10 4 C10 3.01 10 2.02 10 1 C7.36 1.33 4.72 1.66 2 2 C1.67 2.99 1.34 3.98 1 5 C0.67 3.35 0.34 1.7 0 0 Z " fill="#AAAAAA" transform="translate(198,202)"/>
<path d="M0 0 C0.99 0.33 1.98 0.66 3 1 C1.625 3.5 1.625 3.5 0 6 C-0.66 6 -1.32 6 -2 6 C-2 4.35 -2 2.7 -2 1 C-1.34 0.67 -0.68 0.34 0 0 Z " fill="#E5E5E5" transform="translate(414,214)"/>
<path d="M0 0 C1.65 0 3.3 0 5 0 C4.01 2.31 3.02 4.62 2 7 C1.34 7 0.68 7 0 7 C-0.33 6.01 -0.66 5.02 -1 4 C-0.34 4 0.32 4 1 4 C0.67 2.68 0.34 1.36 0 0 Z " fill="#C4C5C4" transform="translate(423,213)"/>
<path d="M0 0 C0.33 0 0.66 0 1 0 C1 1.65 1 3.3 1 5 C-0.65 5.33 -2.3 5.66 -4 6 C-4.33 5.34 -4.66 4.68 -5 4 C-4.01 4 -3.02 4 -2 4 C-1.34 2.68 -0.68 1.36 0 0 Z M-7 6 C-6.01 6.495 -6.01 6.495 -5 7 C-5.99 7.495 -5.99 7.495 -7 8 C-7 7.34 -7 6.68 -7 6 Z " fill="#B8B8B8" transform="translate(373,212)"/>
<path d="M0 0 C2.35171131 0.59861742 4.6859378 1.26924352 7 2 C7.33 2.66 7.66 3.32 8 4 C5.36 4 2.72 4 0 4 C0 2.68 0 1.36 0 0 Z " fill="#B2B2B2" transform="translate(211,226)"/>
<path d="M0 0 C2.31 0.33 4.62 0.66 7 1 C6.67 1.66 6.34 2.32 6 3 C4.68 3 3.36 3 2 3 C1.67 3.66 1.34 4.32 1 5 C0.67 3.35 0.34 1.7 0 0 Z " fill="#D1D2D2" transform="translate(412,220)"/>
<path d="M0 0 C0.99 0 1.98 0 3 0 C3 1.98 3 3.96 3 6 C2.01 6 1.02 6 0 6 C0 4.02 0 2.04 0 0 Z " fill="#B9B9B9" transform="translate(243,203)"/>
<path d="M0 0 C0.99 0.33 1.98 0.66 3 1 C3.33 2.65 3.66 4.3 4 6 C2.68 6 1.36 6 0 6 C0 4.02 0 2.04 0 0 Z " fill="#D2D2D2" transform="translate(326,224)"/>
<path d="M0 0 C0.99 0.33 1.98 0.66 3 1 C3 1.99 3 2.98 3 4 C0 5 0 5 -2.1875 4.0625 C-2.785625 3.711875 -3.38375 3.36125 -4 3 C-2.68 2.67 -1.36 2.34 0 2 C0 1.34 0 0.68 0 0 Z " fill="#ACACAC" transform="translate(212,214)"/>
<path d="M0 0 C2.31 0 4.62 0 7 0 C6.67 1.32 6.34 2.64 6 4 C4.02 3.34 2.04 2.68 0 2 C0 1.34 0 0.68 0 0 Z " fill="#818181" transform="translate(151,215)"/>
</svg>
