<?xml version="1.0" encoding="UTF-8" standalone="no"?>
<svg
   xmlns:dc="http://purl.org/dc/elements/1.1/"
   xmlns:cc="http://creativecommons.org/ns#"
   xmlns:rdf="http://www.w3.org/1999/02/22-rdf-syntax-ns#"
   xmlns:svg="http://www.w3.org/2000/svg"
   xmlns="http://www.w3.org/2000/svg"
   id="svg100"
   xml:space="preserve"
   viewBox="0 0 1024 768"
   y="0px"
   x="0px"
   version="1.1"><metadata
     id="metadata104"><rdf:RDF><cc:Work
         rdf:about=""><dc:format>image/svg+xml</dc:format><dc:type
           rdf:resource="http://purl.org/dc/dcmitype/StillImage" /></cc:Work></rdf:RDF></metadata><defs
     id="defs358056"><linearGradient
       x1="89.069"
       y1="80.73"
       x2="125.47"
       gradientUnits="userSpaceOnUse"
       y2="80.73"
       id="23c7e4e6-e14a-4d94-9685-00af07497dbb"><stop
         offset="0"
         stop-opacity=".4"
         id="stop110" /><stop
         offset=".27595"
         stop-opacity=".28962"
         stop-color="#0F0D0D"
         id="stop112" /><stop
         offset=".67484"
         stop-opacity=".13006"
         stop-color="#1E1A1B"
         id="stop114" /><stop
         offset="1"
         stop-opacity="0"
         stop-color="#231F20"
         id="stop116" /></linearGradient><linearGradient
       x1="114.89"
       y1="80.73"
       x2="94.374"
       gradientUnits="userSpaceOnUse"
       y2="80.73"
       id="63616f66-e8fc-4a96-bfe3-0955d15360bf"><stop
         offset="0"
         stop-opacity=".5"
         stop-color="#fff"
         id="stop121" /><stop
         offset=".01383"
         stop-opacity=".49309"
         stop-color="#fff"
         id="stop123" /><stop
         offset="1"
         stop-opacity="0"
         stop-color="#fff"
         id="stop125" /></linearGradient><linearGradient
       x1="74.534"
       y1="117.89"
       x2="110.87"
       gradientUnits="userSpaceOnUse"
       y2="117.89"
       id="a064eeac-e3bd-47a3-a84f-3c0bab9feb54"><stop
         offset="0"
         stop-opacity="0"
         stop-color="#231F20"
         id="stop130" /><stop
         offset=".32516"
         stop-opacity=".13006"
         stop-color="#1E1A1B"
         id="stop132" /><stop
         offset=".72405"
         stop-opacity=".28962"
         stop-color="#0F0D0D"
         id="stop134" /><stop
         offset="1"
         stop-opacity=".4"
         id="stop136" /></linearGradient><linearGradient
       x1="74.534"
       y1="117.89"
       x2="110.87"
       gradientUnits="userSpaceOnUse"
       y2="117.89"
       id="dc9c50ed-accd-4718-ac3e-d1b90e9ffc48"><stop
         offset="0"
         stop-opacity=".5"
         stop-color="#fff"
         id="stop141" /><stop
         offset=".01383"
         stop-opacity=".49309"
         stop-color="#fff"
         id="stop143" /><stop
         offset="1"
         stop-opacity="0"
         stop-color="#fff"
         id="stop145" /></linearGradient><linearGradient
       x1="81.835"
       y1="124.88"
       x2="81.835"
       gradientUnits="userSpaceOnUse"
       y2="73.755"
       id="cb0d7664-60eb-4a74-b6e6-37fce2e98e5d"><stop
         offset="0"
         stop-opacity="0"
         stop-color="#fff"
         id="stop150" /><stop
         offset=".98617"
         stop-opacity=".49309"
         stop-color="#fff"
         id="stop152" /><stop
         offset="1"
         stop-opacity=".5"
         stop-color="#fff"
         id="stop154" /></linearGradient><linearGradient
       x1="81.835"
       y1="124.88"
       x2="81.835"
       gradientUnits="userSpaceOnUse"
       y2="73.755"
       id="d2c2c167-979e-496f-b261-168a8b9411b1"><stop
         offset="0"
         stop-opacity=".4"
         id="stop159" /><stop
         offset=".27595"
         stop-opacity=".28962"
         stop-color="#0F0D0D"
         id="stop161" /><stop
         offset=".67484"
         stop-opacity=".13006"
         stop-color="#1E1A1B"
         id="stop163" /><stop
         offset="1"
         stop-opacity="0"
         stop-color="#231F20"
         id="stop165" /></linearGradient><linearGradient
       x1="118.17"
       y1="74.401"
       x2="118.17"
       gradientUnits="userSpaceOnUse"
       y2="124.02"
       id="62250ff9-2f75-4a6b-b0b2-cfb30e77e1d3"><stop
         offset="0"
         stop-opacity="0"
         stop-color="#fff"
         id="stop170" /><stop
         offset=".98617"
         stop-opacity=".49309"
         stop-color="#fff"
         id="stop172" /><stop
         offset="1"
         stop-opacity=".5"
         stop-color="#fff"
         id="stop174" /></linearGradient><linearGradient
       x1="118.17"
       y1="74.401"
       x2="118.17"
       gradientUnits="userSpaceOnUse"
       y2="124.02"
       id="3b533dda-e8d7-4d6a-abeb-f58738aec090"><stop
         offset="0"
         stop-opacity=".4"
         id="stop179" /><stop
         offset=".27595"
         stop-opacity=".28962"
         stop-color="#0F0D0D"
         id="stop181" /><stop
         offset=".67484"
         stop-opacity=".13006"
         stop-color="#1E1A1B"
         id="stop183" /><stop
         offset="1"
         stop-opacity="0"
         stop-color="#231F20"
         id="stop185" /></linearGradient><linearGradient
       x1="120.2"
       y1="75.204"
       x2="100.26"
       gradientUnits="userSpaceOnUse"
       y2="122.14"
       id="ea654a42-34eb-41bc-a74c-fd0659d6331f"><stop
         offset=".30163"
         stop-opacity="0"
         stop-color="#231F20"
         id="stop78" /><stop
         offset=".53054"
         stop-opacity=".09833"
         stop-color="#1E1B1C"
         id="stop80" /><stop
         offset=".78932"
         stop-opacity=".2095"
         stop-color="#110F0F"
         id="stop82" /><stop
         offset="1"
         stop-opacity=".3"
         id="stop84" /></linearGradient><linearGradient
       x1="120.2"
       y1="75.204"
       x2="100.26"
       gradientUnits="userSpaceOnUse"
       y2="122.14"
       id="f1bb0478-5eef-4851-bd60-2aa99a4b4fa6"><stop
         offset="0"
         stop-opacity=".5"
         stop-color="#fff"
         id="stop89" /><stop
         offset="1"
         stop-opacity="0"
         stop-color="#fff"
         id="stop91" /></linearGradient><linearGradient
       x1="100.11"
       y1="122.98"
       x2="81.462"
       gradientUnits="userSpaceOnUse"
       y2="78.636"
       id="46ba5019-2d28-4036-a8ca-914aa86b9d6c"><stop
         offset="0"
         stop-opacity=".6"
         id="stop96" /><stop
         offset=".23895"
         stop-opacity=".43443"
         stop-color="#0F0D0D"
         id="stop98" /><stop
         offset=".58436"
         stop-opacity=".1951"
         stop-color="#1E1A1B"
         id="stop100" /><stop
         offset=".86592"
         stop-opacity="0"
         stop-color="#231F20"
         id="stop102" /></linearGradient><linearGradient
       x1="99.695"
       y1="74.299"
       x2="80.555"
       gradientUnits="userSpaceOnUse"
       y2="123.91"
       id="ebef4f23-3031-4c04-b806-64ac9f56ec0e"><stop
         offset=".22"
         stop-opacity="0"
         stop-color="#231F20"
         id="stop46" /><stop
         offset=".47363"
         stop-opacity=".13006"
         stop-color="#1E1A1B"
         id="stop48" /><stop
         offset=".78476"
         stop-opacity=".28962"
         stop-color="#0F0D0D"
         id="stop50" /><stop
         offset="1"
         stop-opacity=".4"
         id="stop52" /></linearGradient><linearGradient
       x1="99.695"
       y1="74.299"
       x2="80.555"
       gradientUnits="userSpaceOnUse"
       y2="123.91"
       id="c0d68290-8327-49d0-9641-7885068fe3fc"><stop
         offset="0"
         stop-opacity=".4"
         stop-color="#fff"
         id="stop57" /><stop
         offset=".78"
         stop-opacity="0"
         stop-color="#fff"
         id="stop59" /></linearGradient><linearGradient
       x1="118.92"
       y1="121.82"
       x2="100.46"
       gradientUnits="userSpaceOnUse"
       y2="76.054"
       id="de61a945-0878-4a0e-bb0d-3237ffddf3c1"><stop
         offset="0"
         stop-opacity="0"
         stop-color="#231F20"
         id="stop64" /><stop
         offset=".32516"
         stop-opacity=".13006"
         stop-color="#1E1A1B"
         id="stop66" /><stop
         offset=".72405"
         stop-opacity=".28962"
         stop-color="#0F0D0D"
         id="stop68" /><stop
         offset="1"
         stop-opacity=".4"
         id="stop70" /></linearGradient><linearGradient
       x1="92.971"
       y1="104.2"
       x2="108.91"
       gradientUnits="userSpaceOnUse"
       y2="123.81"
       id="6db25d9b-43c3-46b3-b034-a1654015621b"><stop
         offset="0"
         stop-opacity=".5"
         stop-color="#fff"
         id="stop14" /><stop
         offset=".01383"
         stop-opacity=".49309"
         stop-color="#fff"
         id="stop16" /><stop
         offset="1"
         stop-opacity="0"
         stop-color="#fff"
         id="stop18" /></linearGradient><linearGradient
       x1="100"
       y1="92.85"
       gradientTransform="matrix(3.31 0 0 3.31 -108.16 71.339)"
       x2="100"
       gradientUnits="userSpaceOnUse"
       y2="74.093"
       id="6e0a4c89-f932-47e5-b088-a2f27f085373"><stop
         offset="0"
         stop-opacity="0"
         stop-color="#fff"
         id="stop23" /><stop
         offset=".98617"
         stop-opacity=".49309"
         stop-color="#fff"
         id="stop25" /><stop
         offset="1"
         stop-opacity=".5"
         stop-color="#fff"
         id="stop27" /></linearGradient><linearGradient
       x1="86.548"
       y1="102.04"
       gradientTransform="matrix(3.31 0 0 3.31 -108.16 71.339)"
       x2="111.88"
       gradientUnits="userSpaceOnUse"
       y2="102.04"
       id="90db7ec3-3399-4f42-b5bc-0d3bc789e59e"><stop
         offset=".25563"
         stop-opacity=".4"
         id="stop32" /><stop
         offset=".46104"
         stop-opacity=".28962"
         stop-color="#0F0D0D"
         id="stop34" /><stop
         offset=".75796"
         stop-opacity=".13006"
         stop-color="#1E1A1B"
         id="stop36" /><stop
         offset="1"
         stop-opacity="0"
         stop-color="#231F20"
         id="stop38" /></linearGradient></defs><g
     style="stroke-width:0;stroke-miterlimit:2"
     transform="translate(17.455,-16.06)"
     stroke-miterlimit="2"
     id="logo-group"><path
       class="c1"
       d="m 294.58,378.67 v -2e-4 c 0,-34.289 -27.797,-62.086 -62.086,-62.086 l -81.396,6e-4 v 43.931 l 81.396,-5.9e-4 c 10.026,3.9e-4 18.155,8.1281 18.155,18.155 v 2e-4 c 0,10.026 -8.1263,18.153 -18.152,18.154 v -0.003 l -26.482,5.9e-4 -17.572,43.931 35.359,42.774 h 61.507 l -40.275,-44.04 c 28.278,-5.7998 49.547,-30.824 49.547,-60.818 z"
       style="font-variant-ligatures:normal;fill:#f9f9f9"
       id="path12" /><path
       id="polygon21"
       d="m 100.29,124.53 h 18.58 L 94.917,98.335 89.608,111.61 Z"
       style="font-variant-ligatures:normal;fill:url(#6db25d9b-43c3-46b3-b034-a1654015621b)"
       transform="matrix(3.31,0,0,3.31,-108.16,71.339)" /><path
       class="highlight"
       d="m 232.5,316.59 v 0.003 -0.003 l -81.396,6e-4 v 43.931 l 81.396,-5.9e-4 c 10.026,3.9e-4 18.155,8.1281 18.155,18.155 h 43.931 c 0,-34.289 -27.797,-62.086 -62.086,-62.086 z"
       style="font-variant-ligatures:normal;fill:url(#6e0a4c89-f932-47e5-b088-a2f27f085373)"
       id="path30" /><path
       class="highlight"
       d="m 294.58,378.67 v -2e-4 h -43.931 v 2e-4 c 0,10.026 -8.1263,18.153 -18.152,18.154 v -0.003 l -26.482,5.9e-4 39.019,42.665 c 28.278,-5.7998 49.547,-30.824 49.547,-60.818 z"
       style="font-variant-ligatures:normal;fill:url(#90db7ec3-3399-4f42-b5bc-0d3bc789e59e)"
       id="path41" /><path
       id="polygon44"
       d="m 111.72,124.53 h 15.26 L 107.96,74.094 H 107.07 92.7 91.809 L 73.017,124.53 H 88.281 L 99.93,93.266 Z"
       style="font-variant-ligatures:normal;fill:#f9f9f9"
       transform="matrix(3.31,0,0,3.31,68.365,71.338)" /><path
       id="polygon55"
       d="M 107.07,74.094 H 91.809 L 73.017,124.53 h 15.264 z"
       style="font-variant-ligatures:normal;fill:url(#ebef4f23-3031-4c04-b806-64ac9f56ec0e)"
       transform="matrix(3.31,0,0,3.31,68.365,71.338)" /><path
       id="polygon62"
       d="M 107.07,74.094 H 91.809 L 73.017,124.53 h 15.264 z"
       style="font-variant-ligatures:normal;fill:url(#c0d68290-8327-49d0-9641-7885068fe3fc)"
       transform="matrix(3.31,0,0,3.31,68.365,71.338)" /><path
       id="polygon73"
       d="m 99.93,93.266 11.79,31.264 h 15.26 L 107.96,74.094 h -0.89 z"
       style="font-variant-ligatures:normal;fill:url(#de61a945-0878-4a0e-bb0d-3237ffddf3c1)"
       transform="matrix(3.31,0,0,3.31,68.365,71.338)" /><path
       id="polygon76"
       d="M 126.98,74.093 H 111.72 L 100.07,105.36 88.281,74.093 H 73.017 l 19.019,50.437 h 0.89 14.374 0.89 z"
       style="font-variant-ligatures:normal;fill:#f9f9f9"
       transform="matrix(3.31,0,0,3.31,236.42,71.339)" /><path
       id="polygon87"
       d="M 92.926,124.53 H 108.19 L 126.98,74.093 H 111.72 Z"
       style="font-variant-ligatures:normal;fill:url(#ea654a42-34eb-41bc-a74c-fd0659d6331f)"
       transform="matrix(3.31,0,0,3.31,236.42,71.339)" /><path
       id="polygon94"
       d="M 92.926,124.53 H 108.19 L 126.98,74.093 H 111.72 Z"
       style="font-variant-ligatures:normal;fill:url(#f1bb0478-5eef-4851-bd60-2aa99a4b4fa6)"
       transform="matrix(3.31,0,0,3.31,236.42,71.339)" /><path
       id="polygon105"
       d="M 92.926,124.53 100.07,105.36 88.281,74.093 H 73.017 l 19.019,50.437 z"
       style="font-variant-ligatures:normal;fill:url(#46ba5019-2d28-4036-a8ca-914aa86b9d6c)"
       transform="matrix(3.31,0,0,3.31,236.42,71.339)" /><path
       class="c1"
       d="m 789.66,316.59 -0.002,-10e-4 v 10e-4 l -71.926,-5.9e-4 h -0.21736 v 0.19718 l -48.111,43.735 v 79.077 l 48.111,43.931 h 0.21333 l 0.004,0.003 v -0.003 l 71.926,6e-4 v 0.003 l 48.328,-43.931 v -79.081 z m -0.002,123.01 -71.926,-3.9e-4 v -79.078 l 71.926,4e-4 z"
       style="font-variant-ligatures:normal;fill:#f9f9f9"
       id="path108" /><path
       id="polygon119"
       d="M 125.47,87.366 110.87,74.094 89.069,74.093 v 13.273 z"
       style="font-variant-ligatures:normal;fill:url(#23c7e4e6-e14a-4d94-9685-00af07497dbb)"
       transform="matrix(3.31,0,0,3.31,422.7,71.34)" /><path
       id="polygon128"
       d="M 125.47,87.366 110.87,74.094 89.069,74.093 v 13.273 z"
       style="font-variant-ligatures:normal;fill:url(#63616f66-e8fc-4a96-bfe3-0955d15360bf)"
       transform="matrix(3.31,0,0,3.31,422.7,71.34)" /><path
       id="polygon139"
       d="M 110.87,124.53 V 111.26 H 74.534 l 14.535,13.27 z"
       style="font-variant-ligatures:normal;fill:url(#a064eeac-e3bd-47a3-a84f-3c0bab9feb54)"
       transform="matrix(3.31,0,0,3.31,422.7,71.34)" /><path
       id="polygon148"
       d="M 110.87,124.53 V 111.26 H 74.534 l 14.535,13.27 z"
       style="font-variant-ligatures:normal;fill:url(#dc9c50ed-accd-4718-ac3e-d1b90e9ffc48)"
       transform="matrix(3.31,0,0,3.31,422.7,71.34)" /><path
       id="polygon157"
       d="M 89.135,74.093 74.534,87.366 v 23.894 h 14.601 z"
       style="font-variant-ligatures:normal;fill:url(#cb0d7664-60eb-4a74-b6e6-37fce2e98e5d)"
       transform="matrix(3.31,0,0,3.31,422.7,71.34)" /><path
       id="polygon168"
       d="M 89.135,74.093 74.534,87.366 v 23.894 h 14.601 z"
       style="font-variant-ligatures:normal;fill:url(#d2c2c167-979e-496f-b261-168a8b9411b1)"
       transform="matrix(3.31,0,0,3.31,422.7,71.34)" /><path
       id="polygon177"
       d="m 110.86,124.53 14.61,-13.27 V 87.366 h -14.61 z"
       style="font-variant-ligatures:normal;fill:url(#62250ff9-2f75-4a6b-b0b2-cfb30e77e1d3)"
       transform="matrix(3.31,0,0,3.31,422.7,71.34)" /><path
       id="polygon188"
       d="m 110.86,124.53 14.61,-13.27 V 87.366 h -14.61 z"
       style="font-variant-ligatures:normal;fill:url(#3b533dda-e8d7-4d6a-abeb-f58738aec090)"
       transform="matrix(3.31,0,0,3.31,422.7,71.34)" /></g></svg>